<svg width="1920" height="960" viewBox="0 0 1920 960" fill="none" xmlns="http://www.w3.org/2000/svg">
<g clip-path="url(#clip0_12_3)">
<rect width="1920" height="960" fill="white"/>
<path d="M1007.24 656.367C704.235 791.352 309.992 805.094 -77 532.327L-58.7468 1521H2086V69C1596.68 74.2414 1445.42 461.159 1007.24 656.367Z" fill="url(#paint0_linear_12_3)"/>
<path fill-rule="evenodd" clip-rule="evenodd" d="M264.109 150.989C258.403 136.584 242.684 129.301 228.998 134.722L77.015 194.921C63.3295 200.342 56.8606 216.414 62.5663 230.819L88.7383 296.894C94.444 311.299 110.164 318.582 123.849 313.161L275.832 252.962C289.518 247.541 295.987 231.469 290.281 217.064L264.109 150.989ZM235.885 152.11C240.447 150.303 245.687 152.731 247.589 157.532L273.761 223.608C275.663 228.409 273.507 233.767 268.945 235.573L116.962 295.773C112.4 297.58 107.16 295.152 105.258 290.351L79.0862 224.275C77.1843 219.474 79.3406 214.116 83.9024 212.309L235.885 152.11Z" fill="#303030"/>
<path d="M492.108 181.378C484.5 162.171 463.541 152.46 445.294 159.688L-66.8234 362.534C-85.0707 369.762 -93.696 391.191 -86.0884 410.398L258.281 1279.81C265.888 1299.02 286.848 1308.73 305.095 1301.5L817.212 1098.65C835.459 1091.43 844.085 1070 836.477 1050.79L492.108 181.378Z" fill="#E1C360"/>
<path d="M492.108 181.378C484.5 162.171 463.541 152.46 445.294 159.688L-66.8234 362.534C-85.0707 369.762 -93.696 391.191 -86.0884 410.398L258.281 1279.81C265.888 1299.02 286.848 1308.73 305.095 1301.5L817.212 1098.65C835.459 1091.43 844.085 1070 836.477 1050.79L492.108 181.378Z" fill="url(#paint1_linear_12_3)" style="mix-blend-mode:overlay"/>
<path d="M216.956 1175.48L793.501 947.115L835.514 1053.18C842.741 1071.43 834.547 1091.79 817.212 1098.65L303.443 1302.15C286.108 1309.02 266.197 1299.79 258.969 1281.55L216.956 1175.48Z" fill="#999999"/>
<g style="mix-blend-mode:color-burn" opacity="0.4">
<path d="M727.127 880.87C723.323 871.267 712.843 866.411 703.72 870.025L234.555 1055.86C225.431 1059.47 221.118 1070.19 224.922 1079.79L296.551 1260.63C300.355 1270.23 310.835 1275.09 319.958 1271.47L789.123 1085.64C798.247 1082.03 802.56 1071.31 798.756 1061.71L727.127 880.87Z" fill="#303030"/>
</g>
<path fill-rule="evenodd" clip-rule="evenodd" d="M222.326 1179.39L797.219 951.677L793.086 941.244L218.194 1168.96L222.326 1179.39Z" fill="#303030"/>
<path fill-rule="evenodd" clip-rule="evenodd" d="M500.368 178.106C490.859 154.098 464.659 141.959 441.85 150.994L-70.267 353.84C-93.0763 362.875 -103.858 389.661 -94.3483 413.669L250.021 1283.08C259.53 1307.09 285.73 1319.23 308.539 1310.19L820.656 1107.35C843.465 1098.31 854.246 1071.53 844.737 1047.52L500.368 178.106ZM448.737 168.382C462.423 162.961 478.142 170.244 483.848 184.649L828.217 1054.06C833.923 1068.47 827.454 1084.54 813.768 1089.96L301.651 1292.81C287.966 1298.23 272.246 1290.94 266.54 1276.54L-77.8284 407.126C-83.5341 392.721 -77.0652 376.649 -63.3796 371.228L448.737 168.382Z" fill="#303030"/>
<g style="mix-blend-mode:color-burn" opacity="0.15">
<path d="M472.978 215.106C463.088 190.138 435.841 177.514 412.119 186.91L-20.7024 358.347C-44.4239 367.743 -55.6368 395.601 -45.7469 420.57L120.928 841.365C130.818 866.334 158.065 878.958 181.787 869.562L614.608 698.124C638.329 688.728 649.542 660.87 639.652 635.902L472.978 215.106Z" fill="#303030"/>
</g>
<path d="M445.433 169.691C435.543 144.722 408.296 132.098 384.574 141.494L-31.7271 306.389C-55.4487 315.785 -66.6615 343.643 -56.7717 368.611L103.016 772.018C112.905 796.987 140.153 809.611 163.874 800.215L580.176 635.32C603.897 625.924 615.11 598.067 605.22 573.098L445.433 169.691Z" fill="#999999"/>
<g style="mix-blend-mode:overlay" opacity="0.6">
<path d="M445.433 169.691C435.543 144.722 408.296 132.098 384.574 141.494L-31.7271 306.389C-55.4487 315.785 -66.6615 343.643 -56.7717 368.611L103.016 772.018C112.905 796.987 140.153 809.611 163.874 800.215L580.176 635.32C603.897 625.924 615.11 598.067 605.22 573.098L445.433 169.691Z" fill="url(#paint2_linear_12_3)"/>
</g>
<g style="mix-blend-mode:soft-light" opacity="0.4">
<path fill-rule="evenodd" clip-rule="evenodd" d="M384.574 141.494C408.296 132.098 435.543 144.722 445.433 169.691L455.076 194.034C445.186 169.066 417.938 156.442 394.217 165.838L-22.0848 330.732C-45.8064 340.128 -57.0192 367.986 -47.1293 392.955L-56.7717 368.611C-66.6615 343.643 -55.4487 315.785 -31.7271 306.389L384.574 141.494Z" fill="white"/>
</g>
<g style="mix-blend-mode:color-burn" opacity="0.1">
<path fill-rule="evenodd" clip-rule="evenodd" d="M395.932 225.507C397.693 228.454 399.218 231.54 400.495 234.764C423.508 292.864 357.107 373.653 252.185 415.212C147.262 456.771 43.5503 443.362 20.5373 385.263C19.2604 382.039 18.2587 378.745 17.5237 375.392L395.932 225.507Z" fill="#303030"/>
</g>
<g style="mix-blend-mode:color-burn" opacity="0.2">
<path fill-rule="evenodd" clip-rule="evenodd" d="M45.6041 627.074C135.067 652.48 234.898 649.374 330.012 611.699C425.127 574.025 500.008 507.929 547.809 428.154L605.22 573.098C615.11 598.066 603.897 625.924 580.176 635.32L163.874 800.215C140.153 809.611 112.905 796.987 103.016 772.018L45.6041 627.074Z" fill="#303030"/>
</g>
<g style="mix-blend-mode:color-burn" opacity="0.2">
<path fill-rule="evenodd" clip-rule="evenodd" d="M93.3732 747.675L595.578 548.755L591.446 538.322L89.2408 737.242L93.3732 747.675Z" fill="#303030"/>
</g>
<path fill-rule="evenodd" clip-rule="evenodd" d="M90.6183 740.72L592.823 541.799L588.691 531.366L86.4859 730.287L90.6183 740.72Z" fill="#303030"/>
<path fill-rule="evenodd" clip-rule="evenodd" d="M20.1929 384.393L400.151 233.894L396.018 223.461L16.0605 373.96L20.1929 384.393Z" fill="#303030"/>
<path fill-rule="evenodd" clip-rule="evenodd" d="M453.693 166.419C441.901 136.649 409.414 121.597 381.131 132.8L-35.1707 297.695C-63.4542 308.897 -76.8233 342.113 -65.0315 371.883L94.7556 775.29C106.547 805.06 139.035 820.112 167.318 808.909L583.62 644.015C611.903 632.812 625.272 599.596 613.48 569.826L453.693 166.419ZM388.018 150.188C407.178 142.599 429.185 152.796 437.173 172.962L596.961 576.37C604.948 596.537 595.892 619.037 576.732 626.626L160.431 791.521C141.271 799.11 119.264 788.914 111.276 768.747L-48.5116 365.339C-56.4996 345.172 -47.4431 322.672 -28.2834 315.083L388.018 150.188Z" fill="#303030"/>
<path fill-rule="evenodd" clip-rule="evenodd" d="M421.813 201.733L417.489 190.817L407.577 194.743L411.901 205.659L421.813 201.733ZM-21.9401 364.873L-17.6164 375.789L-7.70443 371.862L-12.0282 360.947L-21.9401 364.873ZM-8.96888 397.62L-0.321384 419.452L9.59056 415.526L0.943063 393.694L-8.96888 397.62ZM439.108 245.397L430.46 223.565L420.548 227.491L429.196 249.323L439.108 245.397ZM8.3261 441.284L16.9736 463.116L26.8855 459.19L18.238 437.358L8.3261 441.284ZM456.403 289.061L447.755 267.229L437.843 271.155L446.491 292.987L456.403 289.061ZM25.6211 484.948L34.2686 506.78L44.1805 502.854L35.533 481.022L25.6211 484.948ZM473.698 332.725L465.05 310.893L455.138 314.819L463.786 336.651L473.698 332.725ZM42.9161 528.612L51.5635 550.444L61.4755 546.518L52.828 524.686L42.9161 528.612ZM490.993 376.389L482.345 354.557L472.433 358.483L481.081 380.315L490.993 376.389ZM508.288 420.052L499.64 398.22L489.728 402.147L498.376 423.978L508.288 420.052ZM60.211 572.276L68.8585 594.108L78.7705 590.182L70.123 568.35L60.211 572.276ZM77.506 615.94L86.1535 637.771L96.0654 633.845L87.4179 612.013L77.506 615.94ZM525.583 463.716L516.935 441.884L507.023 445.81L515.671 467.642L525.583 463.716ZM94.801 659.603L103.448 681.435L113.36 677.509L104.713 655.677L94.801 659.603ZM542.878 507.38L534.23 485.548L524.318 489.474L532.966 511.306L542.878 507.38ZM112.096 703.267L120.743 725.099L130.655 721.173L122.008 699.341L112.096 703.267ZM560.173 551.044L551.525 529.212L541.613 533.138L550.261 554.97L560.173 551.044ZM129.391 746.931L133.715 757.847C134.458 759.724 135.528 761.385 136.829 762.775L144.402 755.152C144.084 754.812 143.817 754.402 143.627 753.921L139.303 743.005L129.391 746.931ZM573.144 583.792L568.82 572.876L558.908 576.802L563.232 587.718C563.423 588.199 563.509 588.68 563.51 589.146L574.249 589.516C574.245 587.611 573.887 585.668 573.144 583.792ZM565.438 602.937C567.221 602.231 568.785 601.178 570.079 599.875L562.465 591.742C562.149 592.06 561.763 592.323 561.306 592.504L550.981 596.594L555.113 607.027L565.438 602.937ZM146.961 767.47C148.797 767.533 150.658 767.229 152.44 766.523L162.765 762.433L158.633 752L148.308 756.09C147.851 756.271 147.39 756.344 146.941 756.328L146.961 767.47ZM513.813 623.385L534.463 615.206L530.331 604.773L509.681 612.952L513.813 623.385ZM472.514 639.744L493.163 631.565L489.031 621.132L468.381 629.311L472.514 639.744ZM431.214 656.102L451.864 647.923L447.731 637.49L427.081 645.669L431.214 656.102ZM389.914 672.461L410.564 664.282L406.431 653.849L385.782 662.028L389.914 672.461ZM348.614 688.82L369.264 680.64L365.132 670.207L344.482 678.387L348.614 688.82ZM307.315 705.178L327.964 696.999L323.832 686.566L303.182 694.745L307.315 705.178ZM266.015 721.537L286.665 713.357L282.532 702.924L261.882 711.104L266.015 721.537ZM224.715 737.895L245.365 729.716L241.232 719.283L220.583 727.462L224.715 737.895ZM183.415 754.254L204.065 746.075L199.933 735.642L179.283 743.821L183.415 754.254Z" fill="#303030"/>
<path d="M719.551 861.743C715.747 852.14 705.267 847.284 696.144 850.898L226.979 1036.73C217.855 1040.35 213.542 1051.06 217.346 1060.66L288.975 1241.5C292.779 1251.1 303.258 1255.96 312.382 1252.35L781.547 1066.51C790.671 1062.9 794.984 1052.18 791.18 1042.58L719.551 861.743Z" fill="#999999"/>
<path d="M719.551 861.743C715.747 852.14 705.267 847.284 696.144 850.898L226.979 1036.73C217.855 1040.35 213.542 1051.06 217.346 1060.66L288.975 1241.5C292.779 1251.1 303.258 1255.96 312.382 1252.35L781.547 1066.51C790.671 1062.9 794.984 1052.18 791.18 1042.58L719.551 861.743Z" fill="url(#paint3_linear_12_3)"/>
<g style="mix-blend-mode:soft-light" opacity="0.4">
<path fill-rule="evenodd" clip-rule="evenodd" d="M696.144 850.898C705.267 847.284 715.747 852.14 719.551 861.743L729.193 886.086C725.39 876.483 714.91 871.628 705.786 875.242L236.621 1061.08C227.497 1064.69 223.185 1075.4 226.988 1085.01L217.346 1060.66C213.542 1051.06 217.855 1040.35 226.979 1036.73L696.144 850.898Z" fill="white"/>
</g>
<g style="mix-blend-mode:color-burn" opacity="0.2">
<path d="M495.765 562.139C491.961 552.535 481.482 547.68 472.358 551.294L442.622 563.072C433.498 566.686 429.186 577.4 432.989 587.004L601.73 1013.02C608.957 1031.26 628.869 1040.49 646.204 1033.62V1033.62C663.539 1026.75 671.733 1006.4 664.506 988.151L495.765 562.139Z" fill="#303030"/>
</g>
<g style="mix-blend-mode:color-burn" opacity="0.2">
<path fill-rule="evenodd" clip-rule="evenodd" d="M504.025 558.867C498.319 544.462 482.6 537.179 468.914 542.6L439.178 554.378C425.493 559.799 419.024 575.871 424.73 590.275L593.47 1016.29C602.599 1039.34 627.751 1050.99 649.648 1042.32C671.545 1033.64 681.895 1007.93 672.766 984.879L504.025 558.867ZM475.802 559.988C480.363 558.181 485.603 560.609 487.505 565.41L656.246 991.422C661.571 1004.87 655.534 1019.87 642.76 1024.93C629.987 1029.99 615.316 1023.19 609.99 1009.74L441.249 583.732C439.348 578.93 441.504 573.573 446.066 571.766L475.802 559.988Z" fill="#303030"/>
</g>
<g style="mix-blend-mode:color-burn" opacity="0.2">
<path d="M238.055 664.216C234.251 654.613 223.771 649.758 214.647 653.371L184.912 665.15C175.788 668.763 171.475 679.478 175.279 689.081L344.02 1115.09C351.247 1133.34 371.159 1142.56 388.494 1135.7V1135.7C405.829 1128.83 414.023 1108.47 406.796 1090.23L238.055 664.216Z" fill="#303030"/>
</g>
<g style="mix-blend-mode:color-burn" opacity="0.2">
<path fill-rule="evenodd" clip-rule="evenodd" d="M246.315 660.944C240.609 646.54 224.889 639.256 211.204 644.677L181.468 656.455C167.782 661.876 161.313 677.948 167.019 692.353L335.76 1118.36C344.889 1141.41 370.041 1153.07 391.937 1144.39C413.834 1135.72 424.185 1110 415.055 1086.96L246.315 660.944ZM218.091 662.065C222.653 660.259 227.893 662.686 229.795 667.488L398.536 1093.5C403.861 1106.94 397.823 1121.94 385.05 1127C372.277 1132.06 357.605 1125.27 352.28 1111.82L183.539 685.809C181.637 681.008 183.793 675.651 188.355 673.844L218.091 662.065Z" fill="#303030"/>
</g>
<path fill-rule="evenodd" clip-rule="evenodd" d="M727.811 858.471C722.105 844.066 706.386 836.783 692.7 842.204L223.535 1028.04C209.849 1033.46 203.38 1049.53 209.086 1063.93L280.715 1244.77C286.421 1259.18 302.14 1266.46 315.826 1261.04L784.991 1075.21C798.676 1069.79 805.145 1053.71 799.44 1039.31L727.811 858.471ZM699.587 859.592C704.149 857.785 709.389 860.213 711.291 865.015L782.92 1045.85C784.822 1050.65 782.665 1056.01 778.103 1057.82L308.938 1243.65C304.377 1245.46 299.137 1243.03 297.235 1238.23L225.606 1057.39C223.704 1052.59 225.86 1047.23 230.422 1045.43L699.587 859.592Z" fill="#303030"/>
<path fill-rule="evenodd" clip-rule="evenodd" d="M235.942 1107.61L738.147 908.691L734.014 898.258L231.81 1097.18L235.942 1107.61Z" fill="#303030"/>
<path d="M754.753 646.637C750.949 637.034 740.469 632.178 731.345 635.792L680.134 656.077L817.192 1002.1L868.404 981.818C877.528 978.204 881.84 967.49 878.037 957.886L754.753 646.637Z" fill="#999999"/>
<path d="M754.753 646.637C750.949 637.034 740.469 632.178 731.345 635.792L680.134 656.077L817.192 1002.1L868.404 981.818C877.528 978.204 881.84 967.49 878.037 957.886L754.753 646.637Z" fill="url(#paint4_linear_12_3)"/>
<g style="mix-blend-mode:color-burn" opacity="0.3">
<path fill-rule="evenodd" clip-rule="evenodd" d="M867.705 931.804L878.037 957.886C881.84 967.49 877.528 978.204 868.404 981.818L817.192 1002.1L806.861 976.02L858.073 955.736C867.197 952.122 871.509 941.407 867.705 931.804Z" fill="#303030"/>
</g>
<g style="mix-blend-mode:soft-light" opacity="0.4">
<path fill-rule="evenodd" clip-rule="evenodd" d="M731.345 635.792C740.469 632.178 750.949 637.034 754.753 646.637L763.017 667.503C759.214 657.899 748.734 653.044 739.61 656.658L688.398 676.943L680.134 656.077L731.345 635.792Z" fill="white"/>
</g>
<path fill-rule="evenodd" clip-rule="evenodd" d="M763.012 643.365C757.307 628.96 741.587 621.677 727.902 627.098L668.43 650.654L812.376 1014.07L871.848 990.512C885.533 985.092 892.002 969.02 886.297 954.615L763.012 643.365ZM734.789 644.486C739.351 642.679 744.591 645.107 746.493 649.909L869.777 961.158C871.679 965.96 869.522 971.317 864.96 973.124L822.009 990.137L691.837 661.499L734.789 644.486Z" fill="#303030"/>
<path d="M164.377 1240.56C168.181 1250.17 178.661 1255.02 187.784 1251.41L238.996 1231.12L101.937 885.097L50.7255 905.381C41.6018 908.995 37.2891 919.71 41.0929 929.313L164.377 1240.56Z" fill="#999999"/>
<path d="M164.377 1240.56C168.181 1250.17 178.661 1255.02 187.784 1251.41L238.996 1231.12L101.937 885.097L50.7255 905.381C41.6018 908.995 37.2891 919.71 41.0929 929.313L164.377 1240.56Z" fill="url(#paint5_linear_12_3)"/>
<g style="mix-blend-mode:soft-light" opacity="0.4">
<path fill-rule="evenodd" clip-rule="evenodd" d="M50.7255 905.381C41.6018 908.995 37.2892 919.71 41.093 929.313L49.3579 950.179C45.5541 940.576 49.8667 929.861 58.9904 926.247L110.202 905.963L101.937 885.097L50.7255 905.381Z" fill="white"/>
</g>
<path fill-rule="evenodd" clip-rule="evenodd" d="M156.117 1243.83C161.823 1258.24 177.542 1265.52 191.228 1260.1L250.7 1236.55L106.753 873.131L47.2818 896.687C33.5962 902.108 27.1273 918.18 32.833 932.585L156.117 1243.83ZM184.341 1242.71C179.779 1244.52 174.539 1242.09 172.637 1237.29L49.3529 926.041C47.451 921.24 49.6073 915.882 54.1691 914.075L97.1209 897.063L227.292 1225.7L184.341 1242.71Z" fill="#303030"/>
<path fill-rule="evenodd" clip-rule="evenodd" d="M709.061 729.107L776.792 702.279L772.66 691.846L704.928 718.674L709.061 729.107Z" fill="#303030"/>
<path fill-rule="evenodd" clip-rule="evenodd" d="M63.1325 984.955L130.864 958.127L126.732 947.694L59.0001 974.522L63.1325 984.955Z" fill="#303030"/>
<path fill-rule="evenodd" clip-rule="evenodd" d="M92.7506 393.875L78.2871 357.359L68.3752 361.285L82.8387 397.801L92.7506 393.875Z" fill="#303030"/>
<path d="M489.566 546.489C485.763 536.886 475.283 532.031 466.159 535.644L436.423 547.423C427.3 551.036 422.987 561.751 426.791 571.354L595.532 997.366C602.759 1015.61 622.67 1024.84 640.005 1017.97V1017.97C657.34 1011.11 665.534 990.747 658.307 972.501L489.566 546.489Z" fill="#303030"/>
<path fill-rule="evenodd" clip-rule="evenodd" d="M497.826 543.218C492.121 528.813 476.401 521.53 462.715 526.95L432.98 538.728C419.294 544.149 412.825 560.221 418.531 574.626L587.272 1000.64C596.401 1023.69 621.552 1035.34 643.449 1026.67C665.346 1017.99 675.696 992.277 666.567 969.23L497.826 543.218ZM469.603 544.339C474.165 542.532 479.405 544.959 481.306 549.761L650.047 975.773C655.373 989.218 649.335 1004.22 636.562 1009.28C623.789 1014.34 609.117 1007.54 603.792 994.095L435.051 568.083C433.149 563.281 435.305 557.924 439.867 556.117L469.603 544.339Z" fill="#303030"/>
<path d="M604.426 730.32C600.623 720.716 590.143 715.861 581.019 719.475L478.596 760.044C469.472 763.658 465.159 774.373 468.963 783.976L482.738 818.752C486.542 828.356 497.022 833.211 506.145 829.597L608.569 789.028C617.692 785.414 622.005 774.699 618.201 765.096L604.426 730.32Z" fill="#E1C360"/>
<g style="mix-blend-mode:soft-light">
<path fill-rule="evenodd" clip-rule="evenodd" d="M581.019 719.475C590.143 715.861 600.623 720.716 604.426 730.32L611.314 747.708C607.51 738.105 597.03 733.249 587.906 736.863L485.483 777.432C476.359 781.046 472.047 791.761 475.851 801.364L468.963 783.976C465.159 774.373 469.472 763.658 478.596 760.044L581.019 719.475Z" fill="white" fill-opacity="0.6"/>
</g>
<path fill-rule="evenodd" clip-rule="evenodd" d="M612.686 727.048C606.981 712.643 591.261 705.36 577.575 710.781L475.152 751.35C461.467 756.771 454.998 772.843 460.703 787.248L474.478 822.024C480.184 836.429 495.903 843.712 509.589 838.291L612.012 797.722C625.698 792.301 632.167 776.229 626.461 761.824L612.686 727.048ZM584.463 728.169C589.025 726.362 594.265 728.79 596.166 733.591L609.941 768.368C611.843 773.17 609.687 778.527 605.125 780.334L502.702 820.903C498.14 822.71 492.9 820.282 490.998 815.481L477.223 780.704C475.321 775.902 477.478 770.545 482.039 768.738L584.463 728.169Z" fill="#303030"/>
<path fill-rule="evenodd" clip-rule="evenodd" d="M539.04 782.37L550.749 811.93L560.661 808.004L548.952 778.444L539.04 782.37Z" fill="#303030"/>
<path d="M231.856 648.567C228.052 638.963 217.573 634.108 208.449 637.722L178.713 649.5C169.589 653.114 165.277 663.829 169.081 673.432L337.821 1099.44C345.049 1117.69 364.96 1126.92 382.295 1120.05V1120.05C399.63 1113.18 407.824 1092.82 400.597 1074.58L231.856 648.567Z" fill="#303030"/>
<path fill-rule="evenodd" clip-rule="evenodd" d="M240.116 645.295C234.41 630.89 218.691 623.607 205.005 629.028L175.269 640.806C161.584 646.227 155.115 662.299 160.821 676.704L329.561 1102.72C338.69 1125.76 363.842 1137.42 385.739 1128.74C407.636 1120.07 417.986 1094.35 408.857 1071.31L240.116 645.295ZM211.893 646.416C216.454 644.609 221.694 647.037 223.596 651.838L392.337 1077.85C397.662 1091.3 391.625 1106.3 378.851 1111.35C366.078 1116.41 351.407 1109.62 346.081 1096.17L177.34 670.16C175.439 665.358 177.595 660.001 182.157 658.194L211.893 646.416Z" fill="#303030"/>
<path d="M346.716 832.397C342.912 822.794 332.432 817.939 323.309 821.552L220.885 862.122C211.762 865.736 207.449 876.45 211.253 886.053L225.028 920.83C228.831 930.433 239.311 935.289 248.435 931.675L350.858 891.105C359.982 887.492 364.295 876.777 360.491 867.174L346.716 832.397Z" fill="#E1C360"/>
<g style="mix-blend-mode:soft-light">
<path fill-rule="evenodd" clip-rule="evenodd" d="M323.309 821.552C332.432 817.939 342.912 822.794 346.716 832.397L353.603 849.785C349.8 840.182 339.32 835.327 330.196 838.941L227.773 879.51C218.649 883.124 214.336 893.838 218.14 903.442L211.253 886.053C207.449 876.45 211.762 865.736 220.885 862.122L323.309 821.552Z" fill="white" fill-opacity="0.6"/>
</g>
<path fill-rule="evenodd" clip-rule="evenodd" d="M354.976 829.125C349.27 814.721 333.551 807.438 319.865 812.858L217.442 853.428C203.756 858.848 197.287 874.92 202.993 889.325L216.768 924.102C222.473 938.506 238.193 945.79 251.879 940.369L354.302 899.799C367.987 894.379 374.456 878.307 368.751 863.902L354.976 829.125ZM326.752 830.247C331.314 828.44 336.554 830.867 338.456 835.669L352.231 870.445C354.133 875.247 351.976 880.604 347.415 882.411L244.991 922.981C240.429 924.787 235.189 922.36 233.288 917.558L219.513 882.782C217.611 877.98 219.767 872.623 224.329 870.816L326.752 830.247Z" fill="#303030"/>
<path fill-rule="evenodd" clip-rule="evenodd" d="M281.33 884.447L293.039 914.007L302.951 910.081L291.242 880.521L281.33 884.447Z" fill="#303030"/>
<path d="M215.503 119.951C214.742 118.03 212.646 117.059 210.821 117.782L78.6621 170.129C76.8373 170.852 75.9748 172.995 76.7356 174.916L96.0202 223.603C96.781 225.523 98.877 226.494 100.702 225.772L232.861 173.424C234.686 172.701 235.548 170.559 234.787 168.638L215.503 119.951Z" fill="#303030"/>
<g style="mix-blend-mode:color-burn" opacity="0.1">
<path d="M349.383 404.876C345.579 395.272 335.099 390.417 325.975 394.031L183.904 450.304C174.78 453.918 170.468 464.633 174.272 474.236L199.066 536.834C202.87 546.437 213.35 551.292 222.473 547.678L364.545 491.405C373.668 487.791 377.981 477.076 374.177 467.473L349.383 404.876Z" fill="#303030"/>
</g>
<path d="M334.235 390.759C330.431 381.156 319.952 376.3 310.828 379.914L185.277 429.644C176.153 433.258 171.84 443.973 175.644 453.576L200.439 516.174C204.243 525.777 214.722 530.632 223.846 527.018L349.397 477.288C358.521 473.674 362.834 462.96 359.03 453.357L334.235 390.759Z" fill="white"/>
<path fill-rule="evenodd" clip-rule="evenodd" d="M341.806 385.748C336.101 371.344 320.381 364.06 306.696 369.481L181.144 419.211C167.459 424.632 160.99 440.704 166.696 455.109L191.49 517.706C197.196 532.111 212.916 539.394 226.601 533.974L352.152 484.244C365.838 478.823 372.307 462.751 366.601 448.346L341.806 385.748ZM313.583 386.869C318.145 385.063 323.385 387.49 325.287 392.292L350.081 454.89C351.983 459.691 349.827 465.048 345.265 466.855L219.714 516.585C215.152 518.392 209.912 515.965 208.01 511.163L183.215 448.565C181.314 443.764 183.47 438.406 188.032 436.6L313.583 386.869Z" fill="#303030"/>
<path fill-rule="evenodd" clip-rule="evenodd" d="M205.245 455.933L312.625 413.4L309.87 406.445L202.49 448.977L205.245 455.933Z" fill="#303030"/>
<path fill-rule="evenodd" clip-rule="evenodd" d="M255.154 461.309L321.234 435.136L318.479 428.18L252.399 454.354L255.154 461.309Z" fill="#303030"/>
<path fill-rule="evenodd" clip-rule="evenodd" d="M247.244 489.588L329.843 456.871L327.088 449.916L244.489 482.633L247.244 489.588Z" fill="#303030"/>
<path d="M113.451 76.8406C114.024 76.0676 114.482 75.1085 114.825 73.9633C115.169 72.8181 115.34 71.4296 115.34 69.7977C115.34 68.4521 115.183 67.1495 114.868 65.8898C114.582 64.6301 114.109 63.5135 113.451 62.5401C112.792 61.5381 111.934 60.7508 110.874 60.1782C109.815 59.577 108.527 59.2764 107.009 59.2764C105.492 59.2764 104.204 59.577 103.144 60.1782C102.085 60.7508 101.226 61.5381 100.568 62.5401C99.9092 63.5135 99.4225 64.6301 99.1075 65.8898C98.8212 67.1495 98.6781 68.4521 98.6781 69.7977C98.6781 71.086 98.8212 72.3457 99.1075 73.5768C99.4225 74.7793 99.9092 75.8672 100.568 76.8406C101.226 77.814 102.085 78.6013 103.144 79.2025C104.204 79.7751 105.492 80.0614 107.009 80.0614C107.725 80.0614 108.269 80.0328 108.641 79.9755C109.013 79.9183 109.371 79.8037 109.715 79.632L106.838 77.0124L109.972 73.6627L113.451 76.8406ZM114.439 83.9264C112.406 85.1002 109.93 85.6871 107.009 85.6871C104.662 85.6871 102.543 85.2863 100.654 84.4847C98.7926 83.6544 97.218 82.5235 95.9297 81.0921C94.6413 79.6606 93.6536 77.9858 92.9665 76.0676C92.2794 74.1208 91.9358 72.0308 91.9358 69.7977C91.9358 67.5073 92.2794 65.3888 92.9665 63.4419C93.6536 61.4665 94.6413 59.7487 95.9297 58.2886C97.218 56.8285 98.7926 55.6833 100.654 54.8531C102.543 54.0228 104.662 53.6077 107.009 53.6077C109.386 53.6077 111.504 54.0228 113.365 54.8531C115.226 55.6833 116.801 56.8285 118.089 58.2886C119.377 59.7487 120.365 61.4665 121.052 63.4419C121.739 65.3888 122.083 67.5073 122.083 69.7977C122.083 72.0308 121.739 74.1065 121.052 76.0246C120.365 77.9428 119.377 79.632 118.089 81.0921L121.911 84.5706L118.776 87.8343L114.439 83.9264ZM146.875 76.8406C147.448 76.0676 147.906 75.1085 148.25 73.9633C148.593 72.8181 148.765 71.4296 148.765 69.7977C148.765 68.4521 148.607 67.1495 148.293 65.8898C148.006 64.6301 147.534 63.5135 146.875 62.5401C146.217 61.5381 145.358 60.7508 144.299 60.1782C143.239 59.577 141.951 59.2764 140.434 59.2764C138.916 59.2764 137.628 59.577 136.569 60.1782C135.509 60.7508 134.651 61.5381 133.992 62.5401C133.334 63.5135 132.847 64.6301 132.532 65.8898C132.246 67.1495 132.103 68.4521 132.103 69.7977C132.103 71.086 132.246 72.3457 132.532 73.5768C132.847 74.7793 133.334 75.8672 133.992 76.8406C134.651 77.814 135.509 78.6013 136.569 79.2025C137.628 79.7751 138.916 80.0614 140.434 80.0614C141.149 80.0614 141.693 80.0328 142.066 79.9755C142.438 79.9183 142.796 79.8037 143.139 79.632L140.262 77.0124L143.397 73.6627L146.875 76.8406ZM147.863 83.9264C145.83 85.1002 143.354 85.6871 140.434 85.6871C138.086 85.6871 135.968 85.2863 134.078 84.4847C132.217 83.6544 130.642 82.5235 129.354 81.0921C128.066 79.6606 127.078 77.9858 126.391 76.0676C125.704 74.1208 125.36 72.0308 125.36 69.7977C125.36 67.5073 125.704 65.3888 126.391 63.4419C127.078 61.4665 128.066 59.7487 129.354 58.2886C130.642 56.8285 132.217 55.6833 134.078 54.8531C135.968 54.0228 138.086 53.6077 140.434 53.6077C142.81 53.6077 144.929 54.0228 146.789 54.8531C148.65 55.6833 150.225 56.8285 151.513 58.2886C152.802 59.7487 153.789 61.4665 154.477 63.4419C155.164 65.3888 155.507 67.5073 155.507 69.7977C155.507 72.0308 155.164 74.1065 154.477 76.0246C153.789 77.9428 152.802 79.632 151.513 81.0921L155.335 84.5706L152.2 87.8343L147.863 83.9264ZM160.116 54.3378V85H166.858V72.3314H179.699V67.0922H166.858V60.0064H181.674V54.3378H160.116ZM190.954 73.1474L194.948 61.896H195.033L198.898 73.1474H190.954ZM191.598 54.3378L180.003 85H186.788L189.193 78.1719H200.659L202.978 85H209.978L198.512 54.3378H191.598ZM212.622 54.3378V85H234.309V79.3313H219.364V54.3378H212.622ZM240.921 60.0064V85H247.664V60.0064H256.854V54.3378H231.731V60.0064H240.921ZM264.177 73.1474L268.171 61.896H268.257L272.122 73.1474H264.177ZM264.821 54.3378L253.226 85H260.012L262.416 78.1719H273.883L276.202 85H283.201L271.735 54.3378H264.821ZM297.913 78.3866V85H291.171V78.3866H297.913ZM284.257 64.2149C284.285 62.669 284.543 61.2518 285.03 59.9635C285.545 58.6751 286.246 57.5586 287.134 56.6138C288.05 55.669 289.138 54.939 290.398 54.4236C291.686 53.8797 293.117 53.6077 294.692 53.6077C296.725 53.6077 298.414 53.894 299.76 54.4666C301.134 55.0105 302.236 55.6977 303.066 56.5279C303.896 57.3582 304.483 58.26 304.827 59.2334C305.199 60.1782 305.385 61.0657 305.385 61.896C305.385 63.2702 305.199 64.401 304.827 65.2886C304.483 66.1761 304.04 66.9348 303.496 67.5646C302.98 68.1945 302.393 68.7384 301.735 69.1965C301.105 69.6259 300.504 70.0697 299.931 70.5278C299.359 70.9572 298.843 71.4582 298.385 72.0308C297.956 72.6034 297.684 73.3191 297.569 74.178V75.8099H291.772V73.8774C291.858 72.6463 292.087 71.6157 292.459 70.7854C292.86 69.9552 293.318 69.2537 293.833 68.6812C294.349 68.0799 294.892 67.5646 295.465 67.1352C296.038 66.7057 296.567 66.2763 297.054 65.8468C297.541 65.4174 297.927 64.945 298.214 64.4297C298.528 63.9143 298.672 63.2702 298.643 62.4972C298.643 61.1802 298.314 60.2068 297.655 59.577C297.025 58.9471 296.138 58.6322 294.993 58.6322C294.22 58.6322 293.547 58.7896 292.974 59.1046C292.43 59.3909 291.972 59.7917 291.6 60.307C291.257 60.7937 290.999 61.3806 290.827 62.0677C290.655 62.7262 290.569 63.4419 290.569 64.2149H284.257Z" fill="#A3A3A3"/>
<g clip-path="url(#clip1_12_3)">
<path d="M80.8656 54.7979H54.4194C52.343 54.7979 50.663 56.4967 50.663 58.5732L50.6818 85.0005C50.6818 87.0769 52.3619 88.7758 54.4383 88.7758H73.3149L84.6409 77.4498V58.5732C84.6409 56.4967 82.942 54.7979 80.8656 54.7979ZM58.2136 64.2362H77.0902V68.0115H58.2136V64.2362ZM67.6519 75.5621H58.2136V71.7868H67.6519V75.5621ZM71.4273 85.9443V75.5621H81.8094L71.4273 85.9443Z" fill="#A3A3A3"/>
</g>
</g>
<defs>
<linearGradient id="paint0_linear_12_3" x1="778.161" y1="145.613" x2="1143.7" y2="1325.95" gradientUnits="userSpaceOnUse">
<stop stop-color="#E1C360"/>
<stop offset="1" stop-color="#E1C360" stop-opacity="0"/>
</linearGradient>
<linearGradient id="paint1_linear_12_3" x1="317.185" y1="157.123" x2="84.5744" y2="1055.9" gradientUnits="userSpaceOnUse">
<stop offset="0.0231567" stop-color="white"/>
<stop offset="1" stop-opacity="0"/>
</linearGradient>
<linearGradient id="paint2_linear_12_3" x1="330.463" y1="120.683" x2="283.008" y2="856.717" gradientUnits="userSpaceOnUse">
<stop stop-color="white"/>
<stop offset="1" stop-opacity="0"/>
</linearGradient>
<linearGradient id="paint3_linear_12_3" x1="623.749" y1="861.129" x2="684.014" y2="1204.72" gradientUnits="userSpaceOnUse">
<stop stop-color="white"/>
<stop offset="1" stop-opacity="0"/>
</linearGradient>
<linearGradient id="paint4_linear_12_3" x1="726.59" y1="608.075" x2="570.893" y2="757.206" gradientUnits="userSpaceOnUse">
<stop stop-color="white"/>
<stop offset="1" stop-opacity="0"/>
</linearGradient>
<linearGradient id="paint5_linear_12_3" x1="72.6732" y1="847.403" x2="-77.3088" y2="976.005" gradientUnits="userSpaceOnUse">
<stop stop-color="white"/>
<stop offset="1" stop-opacity="0"/>
</linearGradient>
<clipPath id="clip0_12_3">
<rect width="1920" height="960" fill="white"/>
</clipPath>
<clipPath id="clip1_12_3">
<rect width="45.3039" height="45.3039" fill="white" transform="translate(45 49.1348)"/>
</clipPath>
</defs>
</svg>
